<svg t="1733882027703" class="icon" viewBox="0 0 1024 1024" version="1.1" xmlns="http://www.w3.org/2000/svg" p-id="5912" width="200" height="200"><path d="M95.914667 204.8c0-67.669333 56.746667-119.466667 122.794666-119.466667h151.381334a42.666667 42.666667 0 0 1 0 85.333334H218.709333c-22.4 0-37.461333 16.981333-37.461333 34.133333v115.2a42.666667 42.666667 0 0 1-85.333333 0V204.8zM611.242667 128a42.666667 42.666667 0 0 1 42.666666-42.666667h151.381334c66.133333 0 122.794667 51.797333 122.794666 119.466667v115.2a42.666667 42.666667 0 1 1-85.333333 0V204.8c0-17.152-15.018667-34.133333-37.461333-34.133333h-151.381334a42.666667 42.666667 0 0 1-42.666666-42.666667zM85.333333 512a42.666667 42.666667 0 0 1 42.666667-42.666667h768a42.666667 42.666667 0 0 1 0 85.333334H128a42.666667 42.666667 0 0 1-42.666667-42.666667z m53.248 149.333333a42.666667 42.666667 0 0 1 42.666667 42.666667v115.2c0 17.152 15.061333 34.133333 37.461333 34.133333h151.381334a42.666667 42.666667 0 1 1 0 85.333334H218.709333c-66.090667 0-122.794667-51.797333-122.794666-119.466667v-115.2a42.666667 42.666667 0 0 1 42.666666-42.666667z m746.837334 0a42.666667 42.666667 0 0 1 42.666666 42.666667v115.2c0 67.669333-56.704 119.466667-122.794666 119.466667h-151.381334a42.666667 42.666667 0 1 1 0-85.333334h151.381334c22.442667 0 37.461333-16.981333 37.461333-34.133333v-115.2a42.666667 42.666667 0 0 1 42.666667-42.666667z" fill="#75C82B" p-id="5913"></path></svg>
