<svg t="1733883405066" class="icon" viewBox="0 0 1024 1024" version="1.1" xmlns="http://www.w3.org/2000/svg" p-id="9728" width="200" height="200"><path d="M906.164912 512.097517c25.595124-102.380497 15.357074-214.999043-40.952199-307.141489C808.90344 112.813581 721.880018 41.147233 619.499521 15.552109 512-15.16204 404.500479 0.195035 307.239007 56.504308 112.716064 169.122854 46.168741 414.836046 158.787287 614.478014c71.666348 127.975621 209.880018 204.760993 353.212713 204.760993h20.476099c25.595124 0 46.071223-20.476099 46.071224-46.071223s-20.476099-46.071223-46.071224-46.071224c-117.737571 5.119025-230.356117-56.309273-286.66539-158.689769-97.261472-153.570745-40.952199-348.093688 107.499521-435.117111 71.666348-40.952199 158.68977-51.190248 240.594167-30.714149s148.45172 71.666348 189.403919 148.45172c40.952199 71.666348 51.190248 158.68977 30.714149 240.594167s-71.666348 148.45172-148.45172 189.403919c-20.476099 10.23805-30.714149 40.952199-15.357075 61.428298l148.45172 255.951241c10.23805 15.357074 25.595124 20.476099 40.952199 20.476099 10.23805 0 15.357074 0 20.476099-5.119025 20.476099-10.23805 30.714149-40.952199 15.357075-61.428298l-127.975621-214.999042c81.904397-56.309273 133.094645-133.094645 158.68977-225.237093z" p-id="9729" fill="#bfbfbf"></path></svg>
